<?xml version="1.0" encoding="UTF-8"?><svg id="Ebene_2" xmlns="http://www.w3.org/2000/svg" viewBox="0 0 177.79 81.65"><defs><style>.cls-1{fill:#fff;stroke-width:0px;}</style></defs><g id="Ebene_1-2"><path class="cls-1" d="M105.25,55.11h-10.98c-.27,0-.47.22-.47.47v2.69c0,.25.2.47.47.47h3.53v13.19c0,.25.22.47.47.47h2.97c.25,0,.47-.22.47-.47v-13.19h3.53c.27,0,.47-.22.47-.47v-2.69c0-.25-.2-.47-.47-.47ZM121.09,55.11h-2.94c-.27,0-.47.22-.47.47v6.23h-7.07v-6.23c0-.25-.2-.47-.47-.47h-2.94c-.25,0-.47.22-.47.47v16.35c0,.25.22.47.47.47h2.94c.27,0,.47-.22.47-.47v-6.5h7.07v6.5c0,.25.2.47.47.47h2.94c.25,0,.47-.22.47-.47v-16.35c0-.25-.22-.47-.47-.47ZM92.3,55.11h-2.97c-.27,0-.47.22-.47.47v8.77h-.02l-9.86-9.49h-.62c-.25,0-.47.2-.47.44l.02,16.63c0,.25.22.47.47.47h2.94c.27,0,.47-.22.47-.47v-9.21h.02l9.76,9.81s.25.12.32.12h.4c.25,0,.47-.2.47-.44v-16.63c0-.25-.22-.47-.47-.47ZM149.61,68.77h-5.88v-13.19c0-.25-.22-.47-.47-.47h-2.94c-.27,0-.47.22-.47.47v16.35c0,.25.2.47.47.47h9.29c.27,0,.47-.22.47-.47v-2.69c0-.25-.2-.47-.47-.47ZM174.13,65.41c2.15-.86,3.66-2.69,3.66-4.97,0-2.94-2.42-5.34-5.39-5.34h-7.39c-.27,0-.47.22-.47.47v16.35c0,.25.2.47.47.47h2.94c.25,0,.47-.22.47-.47v-6.3h1.71l3.29,6.55c.05.1.2.22.4.22h3.29c.42,0,.59-.4.42-.72l-3.39-6.28ZM172.08,62.49h-3.66v-3.85h3.66c1.01,0,1.88.84,1.88,1.88s-.87,1.98-1.88,1.98ZM131.25,55.13c-.07-.15-.25-.27-.42-.27h-.25c-.17,0-.35.12-.42.27l-7.74,16.63c-.15.32.05.64.42.64h2.72c.49,0,.77-.3.89-.59l.89-1.98h6.72l.89,1.95c.22.47.42.62.87.62h2.74c.37,0,.57-.32.42-.64l-7.74-16.63ZM128.83,66.47l1.85-4.08h.02l1.88,4.08h-3.76ZM13.25,60.44c0-2.94-2.42-5.34-5.39-5.34H.47c-.27,0-.47.22-.47.47v16.35c0,.25.2.47.47.47h2.94c.25,0,.47-.22.47-.47v-6.3h1.71l3.29,6.55c.05.1.2.22.4.22h3.29c.42,0,.59-.4.42-.72l-3.39-6.28c2.15-.86,3.66-2.69,3.66-4.97ZM7.54,62.49h-3.66v-3.85h3.66c1.01,0,1.88.84,1.88,1.88s-.87,1.98-1.88,1.98ZM45.37,63.51h-4.97c-.27,0-.47.2-.47.47v2.45c0,.25.2.44.47.44h1.56v1.43c-.74.3-1.48.4-2.2.4-2.69,0-4.89-2.22-4.89-4.92s2.18-4.99,4.87-4.99c1.21,0,2.3.32,3.24,1.19.2.15.47.15.67-.02l1.95-2.08c.2-.2.17-.49-.05-.67-1.68-1.46-3.96-2.32-6.03-2.32-4.92,0-8.87,3.95-8.87,8.89s3.95,8.84,8.87,8.84c3.58,0,6.13-1.61,6.13-1.61.1-.07.2-.27.2-.4l-.02-6.65c0-.25-.2-.47-.45-.47ZM28.59,55.11h-3.04c-.27,0-.47.22-.47.47v10.01c0,1.73-1.31,3.11-3.09,3.11s-3.04-1.38-3.04-3.11v-10.01c0-.25-.2-.47-.47-.47h-3.04c-.25,0-.47.22-.47.47v10.2c0,3.76,3.14,6.87,7.02,6.87s7.07-3.11,7.07-6.87v-10.2c0-.25-.22-.47-.47-.47ZM161.76,55.11h-10.23c-.27,0-.47.22-.47.47v16.35c0,.25.2.47.47.47h10.23c.27,0,.47-.22.47-.47v-2.69c0-.25-.2-.47-.47-.47h-6.85v-3.34h5.64c.25,0,.47-.2.47-.47v-2.69c0-.25-.22-.47-.47-.47h-5.64v-3.06h6.85c.27,0,.47-.22.47-.47v-2.69c0-.25-.2-.47-.47-.47ZM75.16,55.11h-10.23c-.27,0-.47.22-.47.47v16.35c0,.25.2.47.47.47h10.23c.27,0,.47-.22.47-.47v-2.69c0-.25-.2-.47-.47-.47h-6.85v-3.34h5.64c.25,0,.47-.2.47-.47v-2.69c0-.25-.22-.47-.47-.47h-5.64v-3.06h6.85c.27,0,.47-.22.47-.47v-2.69c0-.25-.2-.47-.47-.47ZM61.61,63.51h-4.97c-.27,0-.47.2-.47.47v2.45c0,.25.2.44.47.44h1.56v1.43c-.74.3-1.48.4-2.2.4-2.69,0-4.89-2.22-4.89-4.92s2.18-4.99,4.87-4.99c1.21,0,2.3.32,3.24,1.19.2.15.47.15.67-.02l1.95-2.08c.2-.2.17-.49-.05-.67-1.68-1.46-3.95-2.32-6.03-2.32-4.92,0-8.87,3.95-8.87,8.89s3.96,8.84,8.87,8.84c3.58,0,6.13-1.61,6.13-1.61.1-.07.2-.27.2-.4l-.02-6.65c0-.25-.2-.47-.44-.47Z"/><path class="cls-1" d="M131.45,75.97h-.08c-.05,0-.11.04-.13.09l-2.47,5.31c-.05.1.02.21.13.21h.87c.16,0,.24-.09.28-.19l.28-.63h2.14l.28.62c.07.15.13.2.28.2h.87c.12,0,.18-.1.13-.21l-2.47-5.31s-.08-.09-.13-.09ZM130.82,79.68l.59-1.3h0l.6,1.3h-1.2ZM127.84,80.41h-1.88v-4.21c0-.08-.07-.15-.15-.15h-.94c-.09,0-.15.07-.15.15v5.22c0,.08.06.15.15.15h2.96c.09,0,.15-.07.15-.15v-.86c0-.08-.06-.15-.15-.15ZM117.78,77.72c-.6,0-1.11.52-1.11,1.14s.51,1.11,1.11,1.11,1.14-.51,1.14-1.11-.52-1.14-1.14-1.14ZM111.01,76.05h-3.26c-.09,0-.15.07-.15.15v5.22c0,.08.06.15.15.15h3.26c.09,0,.15-.07.15-.15v-.86c0-.08-.06-.15-.15-.15h-2.18v-1.06h1.8c.08,0,.15-.06.15-.15v-.86c0-.08-.07-.15-.15-.15h-1.8v-.98h2.18c.09,0,.15-.07.15-.15v-.86c0-.08-.06-.15-.15-.15ZM105.62,76.05h-.95c-.08,0-.15.07-.15.15v5.22c0,.08.07.15.15.15h.95c.08,0,.15-.07.15-.15v-5.22c0-.08-.07-.15-.15-.15ZM102.99,77.75c0-.94-.77-1.7-1.72-1.7h-2.36c-.09,0-.15.07-.15.15v5.22c0,.08.06.15.15.15h.94c.08,0,.15-.07.15-.15v-2.01h.54l1.05,2.09s.06.07.13.07h1.05c.13,0,.19-.13.13-.23l-1.08-2c.69-.28,1.17-.86,1.17-1.58ZM101.17,78.41h-1.17v-1.23h1.17c.32,0,.6.27.6.6s-.28.63-.6.63ZM85.85,78.22c-.62-.25-.86-.47-.86-.76,0-.21.21-.4.5-.4.48,0,1.06.43,1.13.47.07.06.21-.02.27-.1l.4-.61c.03-.06.05-.2-.05-.25-.24-.17-.87-.59-1.69-.59-1.21,0-1.82.79-1.82,1.57,0,.95.85,1.47,1.53,1.74.54.21.81.47.81.8,0,.28-.23.47-.54.47-.52,0-1.09-.42-1.12-.43-.06-.04-.2-.06-.27.05l-.37.65c-.06.11-.04.14.04.22.18.18.75.61,1.77.61,1.16,0,1.86-.82,1.86-1.63,0-1.07-.98-1.55-1.59-1.8ZM97.09,76.05h-3.26c-.09,0-.15.07-.15.15v5.22c0,.08.06.15.15.15h3.26c.09,0,.15-.07.15-.15v-.86c0-.08-.06-.15-.15-.15h-2.18v-1.06h1.8c.08,0,.15-.06.15-.15v-.86c0-.08-.07-.15-.15-.15h-1.8v-.98h2.18c.09,0,.15-.07.15-.15v-.86c0-.08-.06-.15-.15-.15ZM90.65,78.22c-.62-.25-.86-.47-.86-.76,0-.21.21-.4.5-.4.48,0,1.06.43,1.13.47.07.06.21-.02.27-.1l.4-.61c.03-.06.05-.2-.05-.25-.24-.17-.87-.59-1.69-.59-1.21,0-1.82.79-1.82,1.57,0,.95.85,1.47,1.53,1.74.54.21.81.47.81.8,0,.28-.23.47-.54.47-.52,0-1.09-.42-1.12-.43-.06-.04-.2-.06-.27.05l-.37.65c-.06.11-.04.14.04.22.18.18.75.61,1.77.61,1.16,0,1.86-.82,1.86-1.63,0-1.07-.98-1.55-1.59-1.8ZM159.08,77.75c0-.94-.77-1.7-1.72-1.7h-2.36c-.09,0-.15.07-.15.15v5.22c0,.08.06.15.15.15h.94c.08,0,.15-.07.15-.15v-2.01h.54l1.05,2.09s.06.07.13.07h1.05c.13,0,.19-.13.13-.23l-1.08-2c.69-.28,1.17-.86,1.17-1.58ZM157.26,78.41h-1.17v-1.23h1.17c.32,0,.6.27.6.6s-.28.63-.6.63ZM171.36,76.05h-.95c-.09,0-.15.07-.15.15v2.8h0l-3.15-3.03h-.2c-.08,0-.15.06-.15.14v5.31c0,.08.08.15.16.15h.94c.09,0,.15-.07.15-.15v-2.94h0l3.11,3.13s.08.04.1.04h.13c.08,0,.15-.06.15-.14v-5.31c0-.08-.07-.15-.15-.15ZM164.88,76.05h-.97c-.09,0-.15.07-.15.15v3.19c0,.55-.42.99-.99.99s-.97-.44-.97-.99v-3.19c0-.08-.06-.15-.15-.15h-.97c-.08,0-.15.07-.15.15v3.26c0,1.2,1,2.19,2.24,2.19s2.25-.99,2.25-2.19v-3.26c0-.08-.07-.15-.15-.15ZM153.17,76.05h-3.26c-.09,0-.15.07-.15.15v5.22c0,.08.06.15.15.15h3.26c.09,0,.15-.07.15-.15v-.86c0-.08-.06-.15-.15-.15h-2.18v-1.06h1.8c.08,0,.15-.06.15-.15v-.86c0-.08-.07-.15-.15-.15h-1.8v-.98h2.18c.09,0,.15-.07.15-.15v-.86c0-.08-.06-.15-.15-.15ZM147.78,76.05h-.95c-.08,0-.15.07-.15.15v5.22c0,.08.07.15.15.15h.95c.08,0,.15-.07.15-.15v-5.22c0-.08-.07-.15-.15-.15ZM177.78,78.88c0-.08-.06-.15-.14-.15h-1.58c-.09,0-.15.06-.15.15v.78c0,.08.06.14.15.14h.5v.46c-.24.09-.47.13-.7.13-.86,0-1.56-.71-1.56-1.57s.69-1.59,1.55-1.59c.39,0,.73.1,1.03.38.06.05.15.05.21,0l.62-.66c.06-.06.06-.16-.02-.21-.54-.47-1.26-.74-1.92-.74-1.57,0-2.83,1.26-2.83,2.84s1.26,2.82,2.83,2.82c1.14,0,1.96-.51,1.96-.51.03-.02.06-.09.06-.13v-2.12ZM137.61,77.16c.39,0,.77.14,1.06.4.06.06.14.06.2,0l.62-.64c.06-.06.06-.16,0-.22-.54-.49-1.12-.73-1.91-.73-1.58,0-2.85,1.27-2.85,2.85s1.27,2.83,2.85,2.83c.7,0,1.38-.24,1.92-.76.06-.06.06-.16,0-.21l-.61-.65c-.05-.06-.15-.06-.2,0-.28.24-.69.38-1.06.38-.89,0-1.55-.73-1.55-1.6s.65-1.62,1.55-1.62ZM79.82,75.97c-1.58,0-2.83,1.27-2.83,2.85s1.25,2.83,2.83,2.83,2.84-1.25,2.84-2.83-1.26-2.85-2.84-2.85ZM79.82,80.39c-.86,0-1.57-.71-1.57-1.57s.71-1.58,1.57-1.58,1.58.72,1.58,1.58-.71,1.57-1.58,1.57ZM143.4,78.65l1.84-2.31c.09-.12,0-.29-.14-.29h-.99s-.12.04-.15.08l-1.75,2.18v-2.07c0-.1-.09-.19-.19-.19h-.92c-.11,0-.19.09-.19.19v5.14c0,.1.08.19.19.19h.92c.1,0,.19-.09.19-.19v-2.35l1.82,2.48s.09.06.14.06h1.09c.15,0,.24-.17.15-.29l-2.01-2.62ZM17.33,77.75c0-.94-.77-1.7-1.72-1.7h-2.36c-.09,0-.15.07-.15.15v5.22c0,.08.06.15.15.15h.94c.08,0,.15-.07.15-.15v-2.01h.54l1.05,2.09s.06.07.13.07h1.05c.13,0,.19-.13.13-.23l-1.08-2c.69-.28,1.17-.86,1.17-1.58ZM15.51,78.41h-1.17v-1.23h1.17c.32,0,.6.27.6.6s-.28.63-.6.63ZM32.51,76.05h-3.5c-.09,0-.15.07-.15.15v.86c0,.08.06.15.15.15h1.13v4.21c0,.08.07.15.15.15h.95c.08,0,.15-.07.15-.15v-4.21h1.13c.09,0,.15-.07.15-.15v-.86c0-.08-.06-.15-.15-.15ZM11.42,76.05h-3.26c-.09,0-.15.07-.15.15v5.22c0,.08.06.15.15.15h3.26c.09,0,.15-.07.15-.15v-.86c0-.08-.06-.15-.15-.15h-2.18v-1.06h1.8c.08,0,.15-.06.15-.15v-.86c0-.08-.07-.15-.15-.15h-1.8v-.98h2.18c.09,0,.15-.07.15-.15v-.86c0-.08-.06-.15-.15-.15ZM26.4,78.22c-.62-.25-.86-.47-.86-.76,0-.21.21-.4.5-.4.48,0,1.06.43,1.13.47.07.06.21-.02.27-.1l.4-.61c.03-.06.05-.2-.05-.25-.24-.17-.87-.59-1.69-.59-1.21,0-1.82.79-1.82,1.57,0,.95.85,1.47,1.53,1.74.54.21.81.47.81.8,0,.28-.23.47-.54.47-.52,0-1.09-.42-1.12-.43-.06-.04-.21-.06-.27.05l-.37.65c-.06.11-.04.14.04.22.18.18.75.61,1.77.61,1.16,0,1.86-.82,1.86-1.63,0-1.07-.98-1.55-1.59-1.8ZM21.35,78.65l1.84-2.31c.09-.12,0-.29-.14-.29h-.99s-.12.04-.15.08l-1.75,2.18v-2.07c0-.1-.09-.19-.19-.19h-.92c-.11,0-.19.09-.19.19v5.14c0,.1.08.19.19.19h.92c.1,0,.19-.09.19-.19v-2.35l1.82,2.48s.09.06.14.06h1.09c.15,0,.24-.17.15-.29l-2.01-2.62ZM75.86,77.75c0-.94-.77-1.7-1.72-1.7h-2.36c-.09,0-.15.07-.15.15v5.22c0,.08.06.15.15.15h.94c.08,0,.15-.07.15-.15v-2.01h.54l1.05,2.09s.06.07.13.07h1.05c.13,0,.19-.13.13-.23l-1.08-2c.69-.28,1.17-.86,1.17-1.58ZM74.04,78.41h-1.17v-1.23h1.17c.32,0,.6.27.6.6s-.28.63-.6.63ZM6.55,76.05h-.92c-.06,0-.13.06-.14.11l-.68,2.67h-.03l-1.22-2.78s-.06-.09-.13-.09h-.14c-.06,0-.11.04-.13.09l-1.22,2.78h-.03l-.68-2.67c-.02-.06-.08-.11-.14-.11H.15c-.11,0-.17.08-.14.19l1.49,5.3c.02.06.08.11.14.11h.13c.06,0,.11-.04.13-.09l1.43-3.22h.02l1.44,3.22s.08.09.13.09h.13c.06,0,.13-.05.14-.11l1.49-5.3c.03-.11-.03-.19-.14-.19ZM62.66,78.65l1.84-2.31c.09-.12,0-.29-.14-.29h-.99s-.12.04-.15.08l-1.75,2.18v-2.07c0-.1-.09-.19-.19-.19h-.92c-.11,0-.19.09-.19.19v5.14c0,.1.08.19.19.19h.92c.1,0,.19-.09.19-.19v-2.35l1.82,2.48s.09.06.14.06h1.09c.15,0,.24-.17.15-.29l-2.01-2.62ZM67.92,75.97h-.08c-.06,0-.11.04-.13.09l-2.47,5.31c-.05.1.02.21.13.21h.87c.16,0,.24-.09.28-.19l.28-.63h2.14l.28.62c.07.15.13.2.28.2h.88c.12,0,.18-.1.13-.21l-2.47-5.31s-.08-.09-.13-.09ZM67.28,79.68l.59-1.3h0l.6,1.3h-1.2ZM46.72,76.05h-3.5c-.09,0-.15.07-.15.15v.86c0,.08.06.15.15.15h1.13v4.21c0,.08.07.15.15.15h.95c.08,0,.15-.07.15-.15v-4.21h1.13c.09,0,.15-.07.15-.15v-.86c0-.08-.06-.15-.15-.15ZM53.22,77.72c-.6,0-1.11.52-1.11,1.14s.51,1.11,1.11,1.11,1.14-.51,1.14-1.11-.52-1.14-1.14-1.14ZM42.13,76.05h-3.5c-.09,0-.15.07-.15.15v.86c0,.08.06.15.15.15h1.13v4.21c0,.08.07.15.15.15h.95c.08,0,.15-.07.15-.15v-4.21h1.13c.09,0,.15-.07.15-.15v-.86c0-.08-.06-.15-.15-.15ZM35.61,75.97h-.08c-.06,0-.11.04-.13.09l-2.47,5.31c-.05.1.02.21.13.21h.87c.16,0,.24-.09.28-.19l.28-.63h2.14l.28.62c.07.15.13.2.28.2h.88c.12,0,.18-.1.13-.21l-2.47-5.31s-.08-.09-.13-.09ZM34.97,79.68l.59-1.3h0l.6,1.3h-1.2Z"/><path class="cls-1" d="M52.58,39.78h2.12v-3.18s0,0,0,0c0,0,0,0,0,0l-2.12-1.06v4.24ZM63.18,26c-3.48,0-6.54,1.71-8.48,4.3v-9.6s-2.12-1.05-2.12-1.05v13.52l2.45,1.22c.98-3.6,4.24-6.27,8.15-6.27,4.68,0,8.47,3.79,8.47,8.47v3.18h2.12v-3.18c0-5.84-4.75-10.59-10.59-10.59ZM124.62,37.66h-2.12v2.12h5.03l-1.06-2.12h-1.85ZM134.14,0H43.65c-1.67,0-3.04,1.36-3.04,3.04v42.48c0,1.67,1.36,3.04,3.04,3.04h90.48c1.67,0,3.04-1.36,3.04-3.04V3.04c0-1.67-1.36-3.04-3.04-3.04ZM136.13,3.99v41.53c0,1.1-.89,1.99-1.99,1.99H43.65c-1.1,0-1.99-.89-1.99-1.99V3.04c0-1.1.89-1.99,1.99-1.99h90.48c1.1,0,1.99.89,1.99,1.99v.95ZM134.49,2.19c-.11-.05-.23-.07-.36-.07h-.28l-21.52,10.74h-46.88L43.93,2.12h-.28c-.25,0-.48.1-.65.27-.1.1-.16.22-.21.36l22,10.98v7.06c.36.04.71.11,1.07.17v-7.03h46.06v6.91c.36-.05.71-.09,1.07-.11v-7.01l22-10.98c-.08-.25-.26-.45-.5-.56ZM114.02,26.01c-2.75,0-5.23,1.07-7.11,2.79l-3.48-1.74v12.71h2.12v-3.17s0,0,0,0c0-4.67,3.8-8.47,8.47-8.47,3.9,0,7.16,2.66,8.14,6.25l1.91-.95c-1.36-4.29-5.32-7.42-10.05-7.42ZM127.68,32.94c-.57-1.13-1.45-2.75-1.74-3.24-2.57-4.3-7.03-6.87-11.91-6.87-2.66,0-5.24.77-7.48,2.24l-9.54-4.76c-.88-.44-1.86-.67-2.83-.67h-10.38c-1.82,0-3.63.22-5.39.66l-11.81,2.95c-1.12-.29-2.27-.43-3.41-.43-1.83,0-3.63.36-5.3,1.06v-4.5s0-.66,0-.66l-.59-.29-6.35-3.17-1.53-.76v25.26h1.06v-23.55l6.35,3.17v6.21c1.9-1.11,4.08-1.71,6.36-1.71,1.18,0,2.32.17,3.4.47l12.08-3.02c1.68-.42,3.41-.63,5.14-.63h10.38c.82,0,1.63.19,2.36.56l10.1,5.03c2.16-1.56,4.74-2.41,7.39-2.41,4.69,0,8.75,2.59,11,6.35.28.47,1.15,2.08,1.71,3.18.36.72,2.05,4.09,3.18,6.36h1.18l-.24-.47c-1.13-2.27-2.82-5.64-3.18-6.36ZM75.89,39.78h25.42v-2.12h-25.42v2.12Z"/></g></svg>