<?xml version="1.0" encoding="UTF-8"?><svg id="Ebene_2" xmlns="http://www.w3.org/2000/svg" viewBox="0 0 35.43 35.43"><defs><style>.cls-1{fill:none;}.cls-1,.cls-2{stroke-width:0px;}.cls-2{fill:#1d1d1b;}</style></defs><g id="Ebene_1-2"><path class="cls-1" d="M34.99,17.72c0-2.33-.46-4.59-1.36-6.72-.87-2.06-2.11-3.9-3.7-5.49-1.59-1.59-3.43-2.83-5.49-3.7-2.13-.9-4.39-1.36-6.72-1.36s-4.59.46-6.72,1.36c-2.06.87-3.9,2.12-5.49,3.7-1.59,1.59-2.83,3.43-3.7,5.49-.9,2.13-1.36,4.39-1.36,6.72s.46,4.59,1.36,6.72c.87,2.06,2.11,3.9,3.7,5.49,1.59,1.59,3.43,2.83,5.49,3.7,2.13.9,4.39,1.36,6.72,1.36s4.59-.46,6.72-1.36c2.06-.87,3.9-2.12,5.49-3.7,1.59-1.59,2.83-3.43,3.7-5.49.9-2.13,1.36-4.39,1.36-6.72ZM31.44,10.26c.17.5.51.92.57,1.44.05.38-.11.63-.46.8-.2.09-.39.17-.59.27-.31.15-.61.28-.95.06-.03.12-.04.22-.09.3-.06.1-.14.22-.24.27-.37.19-.75.35-1.14.53-.09-.19-.17-.37-.27-.58.32-.15.63-.29.94-.43.25-.12.36-.34.28-.57-.04-.12-.1-.23-.17-.37-.24.11-.47.21-.7.31-.23.1-.46.21-.7.32-.09-.21-.18-.4-.28-.61,1.26-.57,2.51-1.15,3.79-1.73ZM27.99,5.89c.47.45.92.89,1.39,1.34-.16.14-.3.26-.47.4-.26-.27-.54-.57-.81-.85-.28.29-.53.54-.78.79.27.26.57.55.88.85-.16.17-.3.31-.46.48-.29-.32-.57-.63-.84-.93-.32.33-.59.61-.9.92.28.27.59.55.9.85-.17.16-.3.28-.44.41-.43-.44-.86-.9-1.32-1.37.92-.94,1.88-1.91,2.85-2.9ZM19.87,12.68c-.07-.33-.1-.68-.15-1.05h.59s.02-.04.03-.05c-.12-.12-.25-.24-.35-.38-.17-.23-.38-.33-.66-.29-.1.02-.21,0-.34,0,.03-.26.06-.49.08-.73,0-.07-.01-.21-.03-.21-.13-.02-.27-.01-.4,0-.02,0-.03.08-.04.13-.02.11-.03.21-.04.32h-.07c0-.1,0-.2,0-.3,0-.13-.04-.17-.17-.17-.3,0-.3,0-.3.29v.19s-.04,0-.06,0c-.02-.09-.04-.19-.05-.28,0-.16-.08-.22-.23-.2-.08,0-.16,0-.26,0,.03.33.06.63.09.95-.07,0-.13.02-.19.01-.25-.04-.43.05-.56.26-.08.13-.2.18-.36.17-.14-.01-.28,0-.42,0-.04,0-.12.05-.12.07-.01.23,0,.46,0,.74.11-.09.18-.13.23-.2.12-.14.24-.13.39-.05.24.13.48.24.72.4-.19-.02-.39-.03-.58-.06-.33-.05-.65-.05-.97.03-.32.08-.34.06-.26-.24-.16,0-.33.11-.28.22.05.12.2.2.31.29.02.01.06,0,.09-.01.46-.16.92-.09,1.38.04h-.42c.11.18.2.31.41.3.4-.02.81,0,1.28,0-.09.11-.14.19-.2.24-.58.51-1.15,1.02-1.75,1.51-.1.08-.29.06-.43.09-.17.03-.26-.05-.35-.2-.71-1.14-1.42-2.28-2.13-3.42-.08-.13-.17-.18-.32-.18-.83,0-1.65,0-2.48,0h-.21c3.95-4.48,11.16-4.29,14.88,0h-.23c-.89,0-1.78,0-2.66,0-.14,0-.22.04-.3.16-.7,1.12-1.4,2.23-2.09,3.36-.13.21-.26.32-.51.28-.1-.02-.2,0-.34,0,.23-.35.41-.69.64-.98.26-.32.3-.66.22-1.05ZM18.91,17.49c.13.49-.01.82-.47,1.09-.57.34-1.42.26-1.92-.18-.16-.14-.27-.29-.24-.53.02-.12,0-.24,0-.39h2.63ZM16.3,16.55v-1.17h2.64c0,.36,0,.72,0,1.08,0,.03-.07.09-.1.09-.84,0-1.69,0-2.54,0ZM12.15,13.21c.29,0,.58,0,.87,0,.14,0,.22.04.27.16.05.12.12.23.19.36h-5.05c.08-.16.13-.32.21-.45.04-.05.15-.08.22-.08,1.1,0,2.19,0,3.29,0ZM9.17,12.32c.12-.17.21-.32.31-.45.04-.04.11-.07.17-.07.89,0,1.77,0,2.66,0,.06,0,.15.05.19.1.09.12.15.27.23.42h-3.56ZM10.92,14.63c.93,0,1.86,0,2.79,0,.18,0,.3.04.37.22.03.1.09.18.16.31h-6.3c.05-.17.08-.32.14-.46.02-.04.13-.06.19-.06.88,0,1.76,0,2.65,0ZM7.98,16.05c2.17,0,4.34,0,6.51,0,.18,0,.29.05.35.22.04.1.1.19.16.32h-7.32c.02-.16.04-.31.06-.46,0-.03.05-.06.09-.07.05-.01.1,0,.15,0ZM22.5,12.33c.1-.18.18-.35.28-.5.02-.03.11-.03.17-.03.93,0,1.86,0,2.79,0,.08,0,.18.06.24.12.1.11.17.25.28.41h-3.76ZM26.63,13.21c.06,0,.15.06.18.11.08.12.13.26.2.41h-5.25c.09-.17.17-.33.26-.48.02-.03.09-.05.14-.05,1.49,0,2.98,0,4.47,0ZM21.26,14.67s.12-.04.19-.04c1.32,0,2.64,0,3.96,0,.57,0,1.13,0,1.7,0,.19,0,.28.06.31.24.01.09.04.18.07.28h-6.48c.09-.17.17-.33.26-.47ZM22.84,3.41c.07-.17.14-.32.21-.5.61.26,1.2.51,1.8.77-.07.17-.14.32-.21.5-.2-.08-.38-.15-.59-.24-.47,1.1-.93,2.2-1.41,3.32-.22-.09-.42-.18-.63-.27.47-1.11.93-2.2,1.41-3.32-.19-.09-.38-.17-.58-.27ZM17.29,2.64c.08-.41.45-.69.86-.71.26,0,.52,0,.75.15.4.27.46.66.41,1.1h-.64c0-.1,0-.2,0-.29-.02-.23-.16-.37-.38-.37-.22,0-.38.15-.39.38,0,.15,0,.31,0,.46,0,.25.12.36.37.41.19.03.39.07.56.16.33.17.5.46.49.85,0,.19,0,.38,0,.57-.02.52-.41.9-.93.91-.38.01-.71-.05-.95-.37-.18-.25-.21-.53-.18-.85.18,0,.35,0,.52,0,.1,0,.13.04.13.14,0,.07,0,.14,0,.2.02.19.18.32.36.33.18,0,.37-.12.38-.3.02-.23.02-.47,0-.7-.02-.19-.15-.3-.35-.33-.01,0-.02,0-.04,0-.67.03-1.06-.43-1.02-1.16.01-.19,0-.39.04-.57ZM13.46,2.55c.39,1.32.78,2.62,1.18,3.94-.21.07-.42.13-.64.2-.4-1.32-.79-2.63-1.19-3.96.22-.06.42-.12.65-.19ZM9.31,4.32c.13.17.24.32.37.49-.34.26-.67.5-1.01.76.22.3.43.58.65.89.34-.25.66-.5,1.02-.76.12.16.24.32.36.48-.34.26-.67.51-1.01.77.24.33.48.65.73.99.34-.25.68-.49,1.03-.75.12.15.23.3.36.47-.51.39-1.02.77-1.55,1.16-.83-1.1-1.65-2.19-2.49-3.3.51-.4,1.02-.78,1.54-1.18ZM3.66,10.5s.12-.03.17-.02c.84.23,1.68.47,2.53.7.06.02.11.03.17.04,0-.01.01-.02.02-.03-.2-.22-.4-.45-.6-.67-.42-.46-.85-.93-1.28-1.39-.08-.08-.1-.14-.03-.24.11-.15.2-.31.31-.48,1.17.73,2.33,1.45,3.51,2.18-.12.19-.23.37-.35.57-.54-.33-1.06-.66-1.59-.98,0,.01-.02.02-.03.03.43.47.87.95,1.31,1.43-.1.17-.19.34-.31.49-.03.04-.13.05-.18.03-.54-.17-1.07-.34-1.6-.52-.04-.01-.08-.02-.14,0,.53.33,1.06.66,1.61,1-.12.19-.23.37-.35.58-1.18-.73-2.34-1.46-3.52-2.19.12-.19.22-.37.34-.54ZM3.93,16.76c.49,0,.88.41.88.91,0,.51-.4.9-.92.9-.5,0-.89-.41-.89-.92,0-.51.41-.9.93-.89ZM5.39,24.07c-.03.28-.2.43-.4.54-.21.12-.43.25-.64.37-.34.19-.66.17-.92-.12-.19-.22-.34-.48-.5-.73-.1-.16-.18-.32-.29-.5,1.17-.68,2.34-1.35,3.53-2.04.21.38.44.74.6,1.13.19.45.05.76-.37,1.01-.11.06-.21.12-.32.19-.21.13-.43.22-.7.16ZM9.75,27.48c-.24-.29-.51-.6-.76-.9-.33.32-.59.57-.85.81.28.3.57.59.87.91-.13.11-.27.24-.45.4-.25-.29-.52-.6-.78-.9-.35.33-.65.6-.96.89.32.31.62.6.94.9-.17.15-.3.27-.46.41-.44-.42-.89-.86-1.36-1.32.96-.99,1.91-1.98,2.88-2.98.48.45.94.89,1.41,1.34-.15.14-.3.26-.48.43ZM14,29.61c-.2-.08-.39-.16-.59-.24-.47,1.11-.94,2.21-1.41,3.32-.21-.09-.41-.17-.63-.27.47-1.11.93-2.21,1.41-3.32-.2-.09-.38-.17-.58-.26.07-.16.13-.32.21-.5.6.26,1.2.51,1.81.77-.07.17-.14.33-.21.5ZM18.25,33.68c0-.3-.01-.6,0-.9.02-.56-.31-.65-.74-.6-.03,0-.09.09-.09.14,0,.38,0,.77,0,1.15,0,.07,0,.13,0,.22h-.68c0-.17,0-.33,0-.49,0-1.15-.01-2.29-.02-3.44,0-.16.04-.21.21-.21.32.01.64,0,.96,0,.57,0,.92.33.92.9v.74c0,.35-.05.48-.32.73.08.07.17.12.23.2.06.07.13.17.14.25.01.44,0,.87,0,1.32h-.62ZM23.16,32.73c-.55-1.26-1.11-2.52-1.67-3.79.22-.09.41-.17.63-.26.55,1.26,1.09,2.5,1.65,3.77-.2.09-.39.18-.61.28ZM23.45,26.01c-2.05,1.47-4.38,2.01-6.89,1.73-2.26-.25-4.22-1.18-5.86-2.77-1.82-1.76-2.83-3.92-3.05-6.44-.05-.57,0-1.16,0-1.74,0-.04.02-.08.03-.16.25.24.49.47.71.7.09.1.19.13.32.13,2.15,0,4.29,0,6.44-.01.26,0,.4.07.49.3.02.07.06.13.11.23h-6.63s-.01.03-.02.05c.12.12.25.23.35.36.29.38.65.49,1.13.48,1.7-.03,3.4-.01,5.11-.01h.23c-.03.07-.04.11-.07.15-.4.71-.81,1.41-1.22,2.12-.07.11-.17.21-.27.3-.54.5-1.08.99-1.62,1.48-.16.14-.43.06-.5-.15-.01-.03-.02-.07-.02-.11-.03-.19-.06-.39-.08-.59.05-.02.09-.03.13-.05.07-.04.2-.03.15-.16-.04-.11-.02-.26-.22-.25-.45.01-.77-.21-.95-.61-.18-.39-.12-.78.15-1.11.28-.35.66-.42,1.09-.33.08.02.16.05.26.08-.33-.35-.96-.45-1.44-.23-.56.25-.88.82-.82,1.46.06.61.51,1.05,1.3,1.24.02.25.08.51-.16.71-.22.19-.3.43-.23.71,0,.04,0,.09,0,.13.02.34.02.35.34.44.12.04.19.09.19.23,0,.1.02.2.04.29.02.18.12.3.26.28.18-.02.19-.18.2-.31,0-.25-.02-.51-.03-.76,0-.02,0-.05,0-.12.33.26.47-.05.68-.2.05.04.09.08.15.13-.18-.01-.36.12-.64.47.15.14.31.29.47.43.03-.05.08-.11.11-.14.17.19.33.38.51.58.08-.09.14-.16.23-.26-.02.33.22.43.38.59.23.23.24.22.14.56.07.01.18.05.18.03.06-.14.1-.28.15-.43-.02,0-.03,0-.05-.01.07-.02.14-.04.22-.07.08.07.1.32.32.11-.09-.14-.18-.28-.25-.39h-.31c.03-.09.05-.17.09-.28-.15-.09-.31-.21-.48-.3-.04-.02-.11.03-.16.05-.03,0-.06.01-.1.02,0-.03-.01-.06-.02-.09,0-.04,0-.1-.03-.13-.12-.13-.25-.26-.38-.39-.08.07-.15.13-.22.18-.02-.16-.03-.3-.05-.47.09.06.14.09.21.13.12-.21.36-.35.22-.65-.05-.11.02-.15.1-.2.56-.33,1.11-.68,1.68-.98.49-.26.87-.66,1.28-1.03.03-.02.05-.05.13-.11.01.27.03.5.02.73,0,.05-.07.1-.11.14-.33.3-.67.6-1.01.89-.1.08-.14.17-.14.3,0,.18,0,.35,0,.53.02,0,.03.02.05.03.41-.36.81-.72,1.22-1.08.11.22.09.36-.07.51-.33.3-.66.6-1,.88-.15.12-.21.25-.2.44.01.15,0,.3,0,.45.02,0,.03.01.05.02.43-.38.86-.76,1.32-1.17.02.34.04.65.06.95,0,.05.01.1,0,.15-.06.38.15.61.43.81.03.02.12.02.15,0,.11-.08.23-.18.32-.28.05-.06.08-.15.08-.23.03-.42.05-.85.07-1.27,0-.02,0-.05.02-.1.45.4.88.78,1.35,1.19,0-.28,0-.51,0-.75,0-.05-.07-.1-.11-.14-.32-.28-.63-.58-.96-.84-.21-.17-.29-.35-.2-.63.41.37.83.73,1.28,1.13,0-.28,0-.51,0-.74,0-.05-.07-.11-.12-.15-.34-.3-.68-.61-1.03-.91-.08-.07-.12-.14-.11-.25.02-.19.03-.38.04-.61.15.13.28.24.39.36.3.31.65.56,1.03.78.61.34,1.2.71,1.8,1.06.27.16.31.27.22.59-.22-.03-.66.34-.65.56-.06-.04-.11-.07-.16-.11-.1.08-.19.15-.29.23-.09.08-.19.15-.3.24.13.11.25.22.34.29-.16.19-.29.35-.44.52.04.04.07.08.14.16.11-.14.22-.26.31-.38.03.03.08.11.13.11.04,0,.1-.07.19-.15-.05.15-.1.26-.15.4.05.02.16.07.16.05.07-.11.16-.24.16-.36,0-.14-.03-.34-.28-.3,0-.02,0-.03,0-.05.13-.12.27-.25.41-.38.08.12.16.08.25-.01.13-.14.28-.26.4-.38-.02-.09-.04-.15-.05-.22.09.02.18.04.29.06.05-.08.12-.17.19-.28.14.18.28.08.44,0-.05.23-.09.42-.12.61,0,.04-.02.08-.03.13-.01.13-.02.27.14.32.17.05.23-.09.32-.19,0,0,0-.02,0-.03,0-.33.21-.45.49-.49.12-.02.18-.08.17-.21,0-.11,0-.22.02-.33.04-.26,0-.48-.21-.67-.04-.04-.06-.14-.05-.2.1-.48.2-.96.31-1.45.04-.17.28-.32.45-.28.14.03.28.06.41.1.09.03.14,0,.16-.09.06-.27.12-.53.18-.79.03-.15-.08-.14-.17-.16-.56-.13-1.12-.26-1.67-.39-.41-.09-.41-.09-.49.32-.03.16-.07.31-.11.47-.03.12,0,.17.12.19.1.02.19.04.29.07.33.08.42.22.35.55-.1.48-.22.95-.31,1.43-.05.27-.27.31-.44.42-.02.01-.09-.02-.12-.05-.62-.56-1.23-1.12-1.85-1.68-.03-.03-.06-.07-.08-.1-.42-.73-.84-1.46-1.26-2.2-.02-.03-.03-.06-.06-.13h.24c1.84,0,3.69,0,5.53,0,.13,0,.23-.04.33-.13.23-.23.47-.46.7-.7,0-.02-.02-.03-.02-.05h-6.64c.1-.18.16-.34.26-.47.03-.05.14-.07.21-.07,1.2,0,2.39,0,3.59,0,1,0,2,0,3,0,.14,0,.23-.04.32-.14.23-.24.47-.47.74-.74h-7.36c.1-.19.17-.34.26-.49.03-.04.12-.06.18-.06.54,0,1.09,0,1.63,0,1.73,0,3.45,0,5.18,0,.17,0,.23.05.24.21.45,4.07-.93,7.36-4.26,9.76ZM13.59,23.53c-.1-.07-.16-.11-.24-.17.07-.05.12-.08.2-.14.01.11.02.19.04.31ZM14.27,24.8c.05.04.1.07.15.11-.05.06-.1.11-.14.15-.18-.07-.08-.16,0-.26ZM21.72,24.17c-.07.06-.12.11-.19.17-.05-.08-.08-.14-.13-.21.06-.05.11-.08.17-.13.05.06.1.11.15.17ZM22.01,23.44c.23.06.26.11.17.28-.07-.09-.26-.1-.17-.28ZM27.36,30.43c-.91-1.04-1.8-2.08-2.72-3.12.49-.43.96-.85,1.45-1.29.14.15.26.3.41.46-.32.28-.63.54-.96.83.24.28.47.55.71.84.32-.28.64-.55.96-.83.13.15.25.29.39.45-.32.28-.63.55-.96.83.27.31.53.62.8.94.33-.28.65-.54.98-.82.13.15.25.29.39.44-.48.42-.96.84-1.46,1.27ZM31.92,24.57c-.17.37-.39.71-.6,1.09-1.18-.68-2.35-1.35-3.53-2.04.19-.33.36-.64.54-.94.31-.51.7-.6,1.22-.31.11.06.22.13.34.19.2.11.37.25.43.49.24-.12.46-.05.67.07.2.11.39.24.59.34.48.24.54.66.34,1.1ZM31.67,18.57c-.52,0-.92-.4-.91-.91,0-.5.41-.9.91-.89.51,0,.9.4.9.91,0,.51-.39.9-.9.9Z"/><path class="cls-1" d="M17.74,30.11c-.1,0-.19,0-.31,0,0,.38,0,.73,0,1.09,0,.38,0,.38.38.38.25,0,.36-.11.37-.36,0-.22,0-.43,0-.65,0-.33-.12-.45-.44-.45Z"/><path class="cls-1" d="M6.25,22.87c-.05-.16-.15-.3-.24-.46-.34.2-.65.38-.96.56.02.04.02.06.03.09.05.09.1.18.16.27.1.17.23.21.41.12.18-.09.36-.19.52-.31.06-.05.11-.19.08-.27Z"/><path class="cls-1" d="M30.47,12.27c.26-.1.51-.22.75-.34.15-.07.2-.2.16-.35-.04-.15-.12-.29-.18-.45-.45.21-.88.4-1.32.6.06.13.11.25.16.36.1.2.23.27.43.18Z"/><path class="cls-1" d="M4.59,23.24c-.39.23-.76.43-1.15.66.1.16.18.31.28.45.07.1.19.15.31.08.23-.13.45-.25.67-.39.13-.08.2-.21.13-.36-.07-.14-.15-.28-.24-.43Z"/><path class="cls-1" d="M29.45,23.02c-.52-.32-.53-.3-.84.28,0,0,0,.02,0,.06.3.17.61.35.95.55.08-.13.15-.25.22-.38.08-.15.04-.28-.09-.37-.07-.05-.15-.09-.22-.13Z"/><path class="cls-1" d="M30.62,23.66c-.14-.08-.28-.05-.37.09-.08.13-.15.26-.24.41.38.22.74.44,1.14.67.09-.16.18-.3.25-.45.06-.12.04-.25-.08-.33-.23-.14-.46-.27-.69-.39Z"/><path class="cls-2" d="M27.71,16.25c-.02-.15-.07-.21-.24-.21-1.73,0-3.45,0-5.18,0-.54,0-1.09,0-1.63,0-.06,0-.15.02-.18.06-.09.14-.16.3-.26.49h7.36c-.28.28-.52.5-.74.74-.09.1-.19.14-.32.14-1,0-2,0-3,0-1.2,0-2.39,0-3.59,0-.07,0-.18.02-.21.07-.1.13-.16.28-.26.47h6.64s.02.03.02.05c-.24.23-.47.46-.7.7-.09.1-.19.13-.33.13-1.84,0-3.69,0-5.53,0h-.24c.03.06.04.1.06.13.42.73.84,1.46,1.26,2.2.02.04.05.07.08.1.61.56,1.23,1.12,1.85,1.68.03.03.1.07.12.05.17-.11.4-.15.44-.42.08-.48.2-.95.31-1.43.07-.33-.02-.47-.35-.55-.1-.02-.19-.05-.29-.07-.11-.02-.16-.07-.12-.19.05-.15.08-.31.11-.47.09-.41.09-.41.49-.32.56.13,1.12.26,1.67.39.08.02.2.02.17.16-.06.26-.13.53-.18.79-.02.09-.07.12-.16.09-.14-.04-.28-.07-.41-.1-.17-.04-.41.1-.45.28-.11.48-.21.96-.31,1.45-.01.06,0,.16.05.2.21.18.25.41.21.67-.02.11-.02.22-.02.33,0,.13-.05.2-.17.21-.29.04-.5.16-.49.49,0,.01,0,.03,0,.03-.08.1-.15.24-.32.19-.16-.05-.15-.18-.14-.32,0-.04.02-.08.03-.13.04-.19.08-.38.12-.61-.17.08-.31.18-.44,0-.07.11-.14.2-.19.28-.11-.02-.2-.04-.29-.06.02.07.03.13.05.22-.12.12-.27.24-.4.38-.09.1-.17.13-.25.01-.14.13-.27.26-.41.38,0,.02,0,.03,0,.05.26-.04.28.16.28.3,0,.12-.1.24-.16.36,0,.01-.11-.04-.16-.05.05-.14.09-.25.15-.4-.1.08-.15.15-.19.15-.05,0-.09-.08-.13-.11-.1.12-.2.24-.31.38-.07-.08-.1-.12-.14-.16.14-.17.28-.34.44-.52-.09-.08-.2-.18-.34-.29.11-.09.2-.17.3-.24.1-.08.19-.15.29-.23.06.04.11.07.16.11-.02-.22.43-.58.65-.56.09-.32.05-.43-.22-.59-.6-.36-1.19-.72-1.8-1.06-.38-.21-.72-.47-1.03-.78-.12-.12-.25-.23-.39-.36-.01.23-.02.42-.04.61-.01.11.03.18.11.25.35.3.68.6,1.03.91.05.04.12.1.12.15.01.23,0,.46,0,.74-.45-.4-.86-.76-1.28-1.13-.09.28-.01.46.2.63.33.26.64.56.96.84.04.04.11.09.11.14.01.23,0,.47,0,.75-.47-.41-.9-.79-1.35-1.19,0,.06-.02.08-.02.1-.02.42-.04.85-.07,1.27,0,.08-.03.17-.08.23-.09.11-.2.2-.32.28-.03.03-.12.03-.15,0-.28-.19-.49-.43-.43-.81,0-.05,0-.1,0-.15-.02-.3-.03-.61-.06-.95-.46.41-.89.79-1.32,1.17-.02,0-.03-.01-.05-.02,0-.15.01-.3,0-.45-.02-.19.05-.32.2-.44.34-.28.67-.59,1-.88.16-.14.18-.28.07-.51-.41.36-.82.72-1.22,1.08-.02,0-.03-.02-.05-.03,0-.18,0-.35,0-.53,0-.13.04-.22.14-.3.34-.29.68-.59,1.01-.89.05-.04.11-.09.11-.14,0-.23-.01-.46-.02-.73-.07.06-.1.08-.13.11-.41.37-.78.76-1.28,1.03-.57.3-1.12.65-1.68.98-.08.05-.15.09-.1.2.14.29-.1.44-.22.65-.07-.05-.12-.08-.21-.13.02.17.03.31.05.47.07-.06.14-.12.22-.18.13.14.26.26.38.39.03.03.02.08.03.13,0,.03.01.06.02.09.03,0,.07-.01.1-.02.06-.02.13-.07.16-.05.17.09.33.2.48.3-.03.11-.06.2-.09.28h.31c.07.11.16.25.25.39-.22.2-.24-.04-.32-.11-.08.02-.15.04-.22.07.02,0,.03,0,.05.01-.05.14-.09.29-.15.43,0,.01-.12-.02-.18-.03.1-.35.1-.34-.14-.56-.16-.16-.4-.26-.38-.59-.09.1-.15.17-.23.26-.18-.2-.34-.39-.51-.58-.03.03-.07.09-.11.14-.16-.15-.32-.29-.47-.43.28-.34.46-.48.64-.47-.06-.05-.1-.09-.15-.13-.21.14-.35.46-.68.2,0,.07,0,.09,0,.12.01.25.03.51.03.76,0,.13-.01.29-.2.31-.14.01-.23-.1-.26-.28-.01-.1-.04-.2-.04-.29,0-.14-.06-.19-.19-.23-.32-.1-.32-.1-.34-.44,0-.04,0-.09,0-.13-.06-.28,0-.52.23-.71.24-.2.18-.46.16-.71-.79-.19-1.24-.62-1.3-1.24-.06-.65.26-1.21.82-1.46.48-.21,1.11-.12,1.44.23-.1-.03-.18-.06-.26-.08-.42-.09-.8-.01-1.09.33-.28.33-.33.72-.15,1.11.18.4.51.62.95.61.2,0,.18.14.22.25.05.14-.08.12-.15.16-.04.02-.08.03-.13.05.03.2.06.39.08.59,0,.04.01.07.02.11.07.21.34.29.5.15.54-.49,1.08-.99,1.62-1.48.1-.09.2-.18.27-.3.41-.7.81-1.41,1.22-2.12.02-.04.04-.08.07-.15h-.23c-1.7,0-3.41-.02-5.11.01-.48.01-.84-.1-1.13-.48-.1-.13-.23-.24-.35-.36,0-.02.01-.03.02-.05h6.63c-.05-.1-.09-.16-.11-.23-.09-.23-.23-.3-.49-.3-2.15.01-4.29,0-6.44.01-.13,0-.23-.03-.32-.13-.22-.23-.46-.45-.71-.7-.01.08-.03.11-.03.16,0,.58-.05,1.16,0,1.74.22,2.52,1.23,4.68,3.05,6.44,1.64,1.58,3.59,2.51,5.86,2.77,2.51.28,4.84-.25,6.89-1.73,3.33-2.4,4.71-5.69,4.26-9.76Z"/><path class="cls-2" d="M19.02,14.71c.14,0,.24-.01.34,0,.25.04.38-.07.51-.28.69-1.13,1.39-2.24,2.09-3.36.07-.12.16-.16.3-.16.89,0,1.78,0,2.66,0h.23c-3.72-4.29-10.93-4.48-14.88,0h.21c.83,0,1.65,0,2.48,0,.16,0,.24.05.32.18.71,1.14,1.42,2.28,2.13,3.42.09.14.18.22.35.2.15-.03.33,0,.43-.09.59-.49,1.17-1,1.75-1.51.06-.06.11-.13.2-.24-.47,0-.87-.01-1.28,0-.21,0-.3-.11-.41-.3h.42c-.46-.13-.92-.2-1.38-.04-.03.01-.07.03-.09.01-.11-.09-.25-.17-.31-.29-.05-.11.12-.22.28-.22-.07.3-.06.32.26.24.32-.08.64-.08.97-.03.19.03.39.04.58.06-.24-.16-.48-.27-.72-.4-.15-.08-.27-.09-.39.05-.05.06-.13.11-.23.2,0-.28,0-.51,0-.74,0-.03.08-.07.12-.07.14,0,.28-.02.42,0,.16.02.27-.04.36-.17.13-.21.31-.3.56-.26.06,0,.12,0,.19-.01-.03-.32-.06-.62-.09-.95.1,0,.18,0,.26,0,.15-.02.23.04.23.2,0,.09.03.19.05.28.02,0,.04,0,.06,0v-.19c0-.29,0-.29.3-.29.13,0,.18.04.17.17,0,.1,0,.2,0,.3h.07c.01-.11.03-.21.04-.32,0-.05.02-.13.04-.13.13-.01.27-.02.4,0,.02,0,.04.14.03.21-.02.24-.05.47-.08.73.14,0,.24.01.34,0,.28-.04.49.06.66.29.1.14.23.25.35.38,0,.02-.02.03-.03.05h-.59c.05.37.07.72.15,1.05.08.39.04.72-.22,1.05-.23.29-.41.63-.64.98Z"/><path class="cls-2" d="M7.19,12.66c-.55-.34-1.08-.67-1.61-1,.06-.02.1-.01.14,0,.53.17,1.07.35,1.6.52.05.02.16,0,.18-.03.11-.15.2-.32.31-.49-.44-.48-.88-.95-1.31-1.43,0-.01.02-.02.03-.03.53.32,1.05.65,1.59.98.12-.2.23-.38.35-.57-1.18-.73-2.34-1.45-3.51-2.18-.11.17-.2.33-.31.48-.07.1-.05.16.03.24.43.46.85.92,1.28,1.39.2.22.4.45.6.67,0,0-.01.02-.02.03-.06-.01-.11-.03-.17-.04-.84-.24-1.68-.47-2.53-.7-.05-.01-.15-.01-.17.02-.12.17-.23.35-.34.54,1.18.73,2.34,1.46,3.52,2.19.13-.21.24-.39.35-.58Z"/><path class="cls-2" d="M27.93,12.6c.24-.11.47-.21.7-.32.23-.1.46-.21.7-.31.06.14.12.25.17.37.08.23-.03.46-.28.57-.31.15-.62.29-.94.43.09.2.18.39.27.58.39-.18.77-.34,1.14-.53.1-.05.18-.16.24-.27.05-.08.06-.18.09-.3.34.21.64.09.95-.06.19-.09.39-.18.59-.27.35-.16.51-.41.46-.8-.06-.53-.39-.95-.57-1.44-1.28.58-2.53,1.15-3.79,1.73.1.22.19.41.28.61ZM31.2,11.12c.07.16.14.3.18.45.04.15,0,.28-.16.35-.25.12-.5.24-.75.34-.21.08-.34.02-.43-.18-.05-.12-.1-.23-.16-.36.44-.2.87-.4,1.32-.6Z"/><path class="cls-2" d="M18.73,32.11c-.06-.07-.15-.13-.23-.2.26-.25.32-.38.32-.73v-.74c0-.57-.34-.9-.92-.9-.32,0-.64.02-.96,0-.16,0-.21.04-.21.21.01,1.15.02,2.29.02,3.44,0,.16,0,.33,0,.49h.68c0-.09,0-.15,0-.22,0-.38,0-.76,0-1.15,0-.05.05-.14.09-.14.43-.04.76.05.74.6-.01.3,0,.6,0,.9h.62c0-.45,0-.89,0-1.32,0-.09-.07-.18-.14-.25ZM18.18,31.22c0,.25-.12.35-.37.36-.38,0-.38,0-.38-.38,0-.36,0-.71,0-1.09.12,0,.21,0,.31,0,.33,0,.44.13.44.45,0,.22,0,.43,0,.65Z"/><path class="cls-2" d="M31.58,23.47c-.2-.1-.39-.23-.59-.34-.21-.12-.43-.19-.67-.07-.06-.24-.23-.38-.43-.49-.11-.06-.22-.13-.34-.19-.52-.29-.91-.2-1.22.31-.18.3-.35.61-.54.94,1.18.68,2.35,1.36,3.53,2.04.21-.38.44-.72.6-1.09.2-.44.14-.86-.34-1.1ZM29.77,23.53c-.07.12-.14.24-.22.38-.33-.19-.64-.37-.95-.55,0-.04,0-.05,0-.06.31-.57.33-.6.84-.28.07.04.15.08.22.13.13.1.17.22.09.37ZM31.39,24.38c-.07.15-.16.29-.25.45-.39-.23-.76-.45-1.14-.67.09-.15.16-.28.24-.41.09-.14.23-.17.37-.09.23.12.46.26.69.39.12.08.14.2.08.33Z"/><path class="cls-2" d="M6.4,23.72c.42-.25.56-.55.37-1.01-.16-.39-.39-.75-.6-1.13-1.19.69-2.36,1.36-3.53,2.04.1.18.19.35.29.5.16.25.3.51.5.73.26.29.58.32.92.12.21-.12.43-.24.64-.37.2-.12.37-.27.4-.54.27.06.49-.03.7-.16.1-.06.21-.12.32-.19ZM4.7,24.04c-.22.14-.45.26-.67.39-.12.07-.24.03-.31-.08-.1-.14-.18-.29-.28-.45.39-.22.75-.43,1.15-.66.09.16.18.29.24.43.07.15,0,.28-.13.36ZM5.24,23.33c-.06-.09-.1-.18-.16-.27-.01-.02-.02-.05-.03-.09.31-.18.62-.36.96-.56.09.16.19.3.24.46.02.07-.02.22-.08.27-.16.12-.34.22-.52.31-.18.09-.3.05-.41-.12Z"/><path class="cls-2" d="M18.27,4.37s.03,0,.04,0c.2.02.33.14.35.33.02.23.03.47,0,.7-.01.18-.2.31-.38.3-.19,0-.34-.14-.36-.33,0-.07,0-.14,0-.2,0-.09-.03-.14-.13-.14-.17,0-.33,0-.52,0-.03.32,0,.6.18.85.24.32.58.38.95.37.52-.02.91-.39.93-.91,0-.19,0-.38,0-.57,0-.38-.16-.67-.49-.85-.17-.09-.37-.12-.56-.16-.24-.04-.36-.16-.37-.41,0-.15,0-.31,0-.46,0-.23.16-.38.39-.38.22,0,.36.14.38.37,0,.1,0,.19,0,.29h.64c.05-.44-.02-.83-.41-1.1-.23-.15-.49-.16-.75-.15-.41.01-.78.3-.86.71-.04.18-.03.38-.04.57-.05.73.35,1.19,1.02,1.16Z"/><path class="cls-2" d="M5.94,28.69c.47.46.92.9,1.36,1.32.15-.14.29-.26.46-.41-.32-.31-.62-.59-.94-.9.31-.29.61-.57.96-.89.26.3.53.61.78.9.18-.16.32-.29.45-.4-.3-.32-.59-.61-.87-.91.26-.25.52-.5.85-.81.25.3.52.61.76.9.18-.16.32-.29.48-.43-.48-.45-.94-.89-1.41-1.34-.97,1-1.92,1.98-2.88,2.98Z"/><path class="cls-2" d="M27.46,29.54c-.27-.32-.53-.62-.8-.94.33-.28.64-.55.96-.83-.14-.16-.26-.3-.39-.45-.32.28-.64.55-.96.83-.25-.29-.48-.56-.71-.84.33-.28.64-.55.96-.83-.14-.16-.27-.31-.41-.46-.49.44-.97.86-1.45,1.29.91,1.05,1.81,2.08,2.72,3.12.5-.43.98-.85,1.46-1.27-.14-.15-.26-.29-.39-.44-.33.28-.65.55-.98.82Z"/><path class="cls-2" d="M26.91,9.75c-.31-.29-.62-.58-.9-.85.3-.31.58-.6.9-.92.27.3.55.61.84.93.16-.17.3-.31.46-.48-.31-.3-.6-.59-.88-.85.25-.25.5-.5.78-.79.27.29.56.59.81.85.16-.14.31-.27.47-.4-.47-.45-.92-.89-1.39-1.34-.97.99-1.93,1.96-2.85,2.9.46.48.9.93,1.32,1.37.14-.13.27-.25.44-.41Z"/><path class="cls-2" d="M11.8,7.64c-.13-.17-.24-.31-.36-.47-.35.25-.69.5-1.03.75-.25-.34-.49-.66-.73-.99.35-.26.67-.51,1.01-.77-.12-.16-.24-.31-.36-.48-.35.27-.68.51-1.02.76-.23-.31-.43-.59-.65-.89.34-.26.67-.5,1.01-.76-.12-.17-.24-.32-.37-.49-.52.4-1.03.79-1.54,1.18.84,1.11,1.66,2.2,2.49,3.3.53-.4,1.03-.77,1.55-1.16Z"/><path class="cls-2" d="M7.74,16.12c-.03.15-.04.3-.06.46h7.32c-.07-.13-.12-.22-.16-.32-.06-.17-.17-.22-.35-.22-2.17,0-4.34,0-6.51,0-.05,0-.1,0-.15,0-.04.01-.08.04-.09.07Z"/><path class="cls-2" d="M12.2,28.84c.2.09.38.17.58.26-.47,1.12-.94,2.21-1.41,3.32.22.09.42.18.63.27.47-1.12.94-2.21,1.41-3.32.2.08.39.16.59.24.07-.17.14-.33.21-.5-.61-.26-1.2-.51-1.81-.77-.08.18-.14.34-.21.5Z"/><path class="cls-2" d="M22.65,7.26c.48-1.12.94-2.22,1.41-3.32.21.08.39.16.59.24.07-.17.14-.32.21-.5-.6-.26-1.2-.51-1.8-.77-.08.18-.14.33-.21.5.2.09.39.18.58.27-.47,1.12-.94,2.21-1.41,3.32.21.09.41.17.63.27Z"/><path class="cls-2" d="M27.41,14.87c-.03-.18-.12-.24-.31-.24-.57.01-1.13,0-1.7,0-1.32,0-2.64,0-3.96,0-.06,0-.16,0-.19.04-.1.14-.17.3-.26.47h6.48c-.03-.11-.05-.19-.07-.28Z"/><path class="cls-2" d="M8.08,14.69c-.06.14-.09.3-.14.46h6.3c-.06-.12-.12-.21-.16-.31-.07-.18-.19-.22-.37-.22-.93.01-1.86,0-2.79,0-.88,0-1.76,0-2.65,0-.07,0-.17.02-.19.06Z"/><path class="cls-2" d="M18.94,16.45c0-.36,0-.71,0-1.08h-2.64v1.17c.85,0,1.69,0,2.54,0,.04,0,.1-.06.1-.09Z"/><path class="cls-2" d="M16.28,17.88c-.03.23.08.39.24.53.5.44,1.35.52,1.92.18.46-.27.61-.6.47-1.09h-2.63c0,.14.01.27,0,.39Z"/><path class="cls-2" d="M21.49,28.94c.56,1.27,1.11,2.53,1.67,3.79.22-.1.41-.19.61-.28-.55-1.27-1.1-2.51-1.65-3.77-.22.09-.41.17-.63.26Z"/><path class="cls-2" d="M14.64,6.49c-.4-1.33-.78-2.62-1.18-3.94-.23.07-.43.12-.65.19.4,1.33.79,2.64,1.19,3.96.22-.07.43-.14.64-.2Z"/><path class="cls-2" d="M22.01,13.26c-.09.15-.17.31-.26.48h5.25c-.07-.15-.12-.29-.2-.41-.03-.05-.12-.11-.18-.11-1.49,0-2.98,0-4.47,0-.05,0-.12.02-.14.05Z"/><path class="cls-2" d="M8.64,13.29c-.09.13-.14.28-.21.45h5.05c-.07-.14-.14-.24-.19-.36-.05-.12-.13-.17-.27-.16-.29.01-.58,0-.87,0-1.1,0-2.19,0-3.29,0-.08,0-.19.02-.22.08Z"/><path class="cls-2" d="M3.89,18.57c.52,0,.92-.38.92-.9,0-.5-.39-.9-.88-.91-.52,0-.92.38-.93.89,0,.51.38.91.89.92Z"/><path class="cls-2" d="M31.67,16.76c-.5,0-.91.4-.91.89,0,.51.4.91.91.91.51,0,.9-.39.9-.9,0-.51-.39-.9-.9-.91Z"/><path class="cls-2" d="M25.74,11.8c-.93,0-1.86,0-2.79,0-.06,0-.15,0-.17.03-.1.15-.18.32-.28.5h3.76c-.11-.16-.18-.3-.28-.41-.06-.06-.16-.12-.24-.12Z"/><path class="cls-2" d="M12.49,11.9c-.04-.05-.12-.1-.19-.1-.89,0-1.77,0-2.66,0-.06,0-.14.03-.17.07-.11.13-.2.28-.31.45h3.56c-.08-.16-.15-.3-.23-.42Z"/><path class="cls-2" d="M21.53,24.34c.07-.06.12-.11.19-.17-.05-.06-.1-.11-.15-.17-.06.04-.1.08-.17.13.05.07.08.14.13.21Z"/><path class="cls-2" d="M22.01,23.44c-.09.18.1.19.17.28.09-.17.06-.22-.17-.28Z"/><path class="cls-2" d="M14.41,24.91c-.05-.04-.09-.07-.15-.11-.07.1-.17.19,0,.26.04-.05.09-.1.14-.15Z"/><path class="cls-2" d="M13.59,23.53c-.01-.12-.02-.2-.04-.31-.08.06-.14.09-.2.14.08.06.14.1.24.17Z"/><path class="cls-2" d="M35.43,17.73v-.02c0-9.78-7.93-17.71-17.72-17.71S0,7.93,0,17.71v.02c0,9.78,7.93,17.71,17.72,17.71s17.71-7.93,17.72-17.71ZM24.44,33.63c-2.13.9-4.39,1.36-6.72,1.36s-4.59-.46-6.72-1.36c-2.06-.87-3.9-2.12-5.49-3.7-1.59-1.59-2.83-3.43-3.7-5.49-.9-2.13-1.36-4.39-1.36-6.72s.46-4.59,1.36-6.72c.87-2.06,2.11-3.9,3.7-5.49,1.59-1.59,3.43-2.83,5.49-3.7,2.13-.9,4.39-1.36,6.72-1.36s4.59.46,6.72,1.36c2.06.87,3.9,2.12,5.49,3.7,1.59,1.59,2.83,3.43,3.7,5.49.9,2.13,1.36,4.39,1.36,6.72s-.46,4.59-1.36,6.72c-.87,2.06-2.11,3.9-3.7,5.49-1.59,1.59-3.43,2.83-5.49,3.7Z"/></g></svg>